<svg xmlns="http://www.w3.org/2000/svg" width="50" height="50" viewBox="0 0 60 60"><svg width="50" height="50"><defs><linearGradient x1="50%" y1="0%" x2="50%" y2="100%" id="a"><stop stop-color="#00B2FF" offset="0%"/><stop stop-color="#006AFF" offset="100%"/></linearGradient></defs><g fill="none" fill-rule="evenodd"><circle fill="#FFF" cx="30" cy="30" r="30"/><svg x="10" y="10"><path d="M0 0h40v40H0z"/><path d="M20 0C8.733 0 0 8.253 0 19.4c0 5.83 2.39 10.87 6.281 14.35.327.291.524.701.537 1.14l.11 3.557a1.6 1.6 0 0 0 2.245 1.415l3.97-1.752a1.595 1.595 0 0 1 1.068-.079A21.81 21.81 0 0 0 20 38.8c11.267 0 20-8.253 20-19.4C40 8.253 31.267 0 20 0" fill="url(#a)"/><path d="M7.99 25.073l5.875-9.32a3 3 0 0 1 4.338-.8l4.673 3.504a1.2 1.2 0 0 0 1.445-.004l6.31-4.79c.843-.639 1.943.369 1.379 1.264l-5.875 9.32a3 3 0 0 1-4.338.8l-4.673-3.504a1.2 1.2 0 0 0-1.445.004l-6.31 4.79c-.843.639-1.943-.37-1.379-1.264" fill="#FFF"/></svg></g></svg></svg>