<svg width="560" height="560" xmlns="http://www.w3.org/2000/svg" xmlns:xlink="http://www.w3.org/1999/xlink"><defs><path id="a" d="M0 693.333h693.333V0H0z"/></defs><g fill="none" fill-rule="evenodd"><path fill="#FFF" fill-rule="nonzero" d="M-67 627.333h693.333V-66H-67z"/><g transform="matrix(1 0 0 -1 -67 627.333)"><mask id="b" fill="#fff"><use xlink:href="#a"/></mask><g mask="url(#b)" fill-rule="nonzero"><path d="M488.26 256.732h-88.181l-21.167-36.906c-1.83-3.189-6.39-3.298-8.37-.2l-18.006 37.378-87.233-.272c-9.871 0-17.947 8.076-17.947 17.946V407.36c0 9.87 8.076 17.946 17.947 17.946H488.26c9.87 0 17.947-8.076 17.947-17.946V274.678c0-9.87-8.076-17.946-17.947-17.946" fill="#66BFA7"/><path d="M434.848 316.98h-88.182L325.5 280.076c-1.83-3.189-6.39-3.298-8.37-.2l-18.006 37.378-87.234-.272c-9.87 0-17.946 8.076-17.946 17.946V467.61c0 9.87 8.076 17.946 17.946 17.946h222.958c9.87 0 17.946-8.076 17.946-17.946V334.927c0-9.87-8.076-17.946-17.946-17.946" fill="#FFF"/><path d="M441.685 327.236h-88.182l-21.166-36.906c-1.83-3.189-6.391-3.298-8.371-.2l-18.005 37.378-87.234-.272c-9.87 0-17.946 8.076-17.946 17.946v132.682c0 9.87 8.076 17.946 17.946 17.946h222.958c9.87 0 17.946-8.076 17.946-17.946V345.182c0-9.87-8.076-17.946-17.946-17.946" fill="#FFB200"/><path d="M499.39 268.853c0-9.864-8.026-17.888-17.888-17.888H399.45a5.417 5.417 0 0 1-4.66-2.656l-22.935-38.738-22.935 38.738a5.418 5.418 0 0 1-4.66 2.656h-82.05c-9.864 0-17.888 8.024-17.888 17.888v41.613h46.474l26.023-43.95a5.414 5.414 0 0 1 9.317 0l26.022 43.95h78.965c15.835 0 28.717 12.883 28.717 28.717v79.46h21.662c9.862 0 17.888-8.024 17.888-17.888V268.853zm-305.446 70.33v131.902c0 9.864 8.024 17.89 17.888 17.89h219.29c9.865 0 17.889-8.026 17.889-17.89V339.183c0-9.864-8.024-17.889-17.888-17.889h-82.05a5.418 5.418 0 0 1-4.66-2.655l-22.935-38.737-22.936 38.737a5.414 5.414 0 0 1-4.66 2.655h-82.05c-9.864 0-17.888 8.025-17.888 17.89zm287.558 90.288H459.84v41.614c0 15.834-12.882 28.717-28.717 28.717h-219.29c-15.835 0-28.718-12.883-28.718-28.717V339.183c0-15.834 12.883-28.717 28.717-28.717h21.66v-41.613c0-15.835 12.883-28.718 28.718-28.718h78.965l26.02-43.948a5.413 5.413 0 0 1 9.319 0l26.022 43.948h78.966c15.833 0 28.716 12.883 28.716 28.718v131.902c0 15.835-12.883 28.716-28.716 28.716z" fill="#333"/></g></g></g></svg>